<mxfile host="app.diagrams.net" agent="Mozilla/5.0 (Windows NT 10.0; Win64; x64) AppleWebKit/537.36 (KHTML, like Gecko) Chrome/131.0.0.0 Safari/537.36" version="25.0.3">
  <diagram name="Página-1" id="IIW3WguvGYLIguUCiZcW">
    <mxGraphModel dx="819" dy="470" grid="1" gridSize="10" guides="1" tooltips="1" connect="1" arrows="1" fold="1" page="1" pageScale="1" pageWidth="2339" pageHeight="3300" math="0" shadow="0">
      <root>
        <mxCell id="0" />
        <mxCell id="1" parent="0" />
        <mxCell id="_JVQNnz1pDGzqvOxEBza-3" style="edgeStyle=none;curved=1;rounded=0;orthogonalLoop=1;jettySize=auto;html=1;exitX=0.5;exitY=1;exitDx=0;exitDy=0;entryX=0.5;entryY=0;entryDx=0;entryDy=0;fontSize=12;startSize=8;endSize=8;endArrow=none;endFill=0;" edge="1" parent="1" source="_JVQNnz1pDGzqvOxEBza-4">
          <mxGeometry relative="1" as="geometry">
            <mxPoint x="178" y="517" as="targetPoint" />
          </mxGeometry>
        </mxCell>
        <mxCell id="_JVQNnz1pDGzqvOxEBza-4" value="USUARIO" style="rounded=0;whiteSpace=wrap;html=1;" vertex="1" parent="1">
          <mxGeometry x="118" y="156" width="120" height="60" as="geometry" />
        </mxCell>
        <mxCell id="_JVQNnz1pDGzqvOxEBza-5" style="edgeStyle=none;curved=1;rounded=0;orthogonalLoop=1;jettySize=auto;html=1;exitX=0.5;exitY=1;exitDx=0;exitDy=0;entryX=0.5;entryY=0;entryDx=0;entryDy=0;fontSize=12;startSize=8;endSize=8;endArrow=none;endFill=0;" edge="1" parent="1" source="_JVQNnz1pDGzqvOxEBza-6">
          <mxGeometry relative="1" as="geometry">
            <mxPoint x="360" y="517" as="targetPoint" />
          </mxGeometry>
        </mxCell>
        <mxCell id="_JVQNnz1pDGzqvOxEBza-6" value="INTERFAZ DE USUARIO" style="rounded=0;whiteSpace=wrap;html=1;" vertex="1" parent="1">
          <mxGeometry x="300" y="156" width="120" height="60" as="geometry" />
        </mxCell>
        <mxCell id="_JVQNnz1pDGzqvOxEBza-7" style="edgeStyle=none;curved=1;rounded=0;orthogonalLoop=1;jettySize=auto;html=1;exitX=0.5;exitY=1;exitDx=0;exitDy=0;entryX=0.5;entryY=0;entryDx=0;entryDy=0;fontSize=12;startSize=8;endSize=8;endArrow=none;endFill=0;" edge="1" parent="1" source="_JVQNnz1pDGzqvOxEBza-8">
          <mxGeometry relative="1" as="geometry">
            <mxPoint x="542" y="517" as="targetPoint" />
          </mxGeometry>
        </mxCell>
        <mxCell id="_JVQNnz1pDGzqvOxEBza-8" value="INTERFAZ DE SERVICIO" style="rounded=0;whiteSpace=wrap;html=1;" vertex="1" parent="1">
          <mxGeometry x="482" y="156" width="120" height="60" as="geometry" />
        </mxCell>
        <mxCell id="_JVQNnz1pDGzqvOxEBza-9" value="" style="endArrow=classic;html=1;rounded=0;fontSize=12;startSize=8;endSize=8;curved=1;" edge="1" parent="1">
          <mxGeometry width="50" height="50" relative="1" as="geometry">
            <mxPoint x="180" y="240" as="sourcePoint" />
            <mxPoint x="360" y="240" as="targetPoint" />
          </mxGeometry>
        </mxCell>
        <mxCell id="_JVQNnz1pDGzqvOxEBza-10" value="&lt;font style=&quot;font-size: 10px;&quot;&gt;Pulsar Pedido&lt;/font&gt;" style="text;html=1;align=center;verticalAlign=middle;resizable=0;points=[];autosize=1;strokeColor=none;fillColor=none;fontSize=16;" vertex="1" parent="1">
          <mxGeometry x="225" y="210" width="90" height="30" as="geometry" />
        </mxCell>
        <mxCell id="_JVQNnz1pDGzqvOxEBza-11" value="" style="endArrow=classic;html=1;rounded=0;fontSize=12;startSize=8;endSize=8;curved=1;" edge="1" parent="1">
          <mxGeometry width="50" height="50" relative="1" as="geometry">
            <mxPoint x="360" y="280" as="sourcePoint" />
            <mxPoint x="540" y="280" as="targetPoint" />
          </mxGeometry>
        </mxCell>
        <mxCell id="_JVQNnz1pDGzqvOxEBza-12" value="&lt;span style=&quot;font-size: 10px;&quot;&gt;Pedir información del pedido&lt;/span&gt;" style="text;html=1;align=center;verticalAlign=middle;resizable=0;points=[];autosize=1;strokeColor=none;fillColor=none;fontSize=16;" vertex="1" parent="1">
          <mxGeometry x="380" y="250" width="150" height="30" as="geometry" />
        </mxCell>
        <mxCell id="_JVQNnz1pDGzqvOxEBza-13" value="" style="endArrow=classic;html=1;rounded=0;fontSize=12;startSize=8;endSize=8;curved=1;dashed=1;" edge="1" parent="1">
          <mxGeometry width="50" height="50" relative="1" as="geometry">
            <mxPoint x="540" y="320" as="sourcePoint" />
            <mxPoint x="360" y="320" as="targetPoint" />
          </mxGeometry>
        </mxCell>
        <mxCell id="_JVQNnz1pDGzqvOxEBza-14" value="&lt;span style=&quot;font-size: 10px;&quot;&gt;Información del pedido&lt;/span&gt;" style="text;html=1;align=center;verticalAlign=middle;resizable=0;points=[];autosize=1;strokeColor=none;fillColor=none;fontSize=16;" vertex="1" parent="1">
          <mxGeometry x="395" y="290" width="120" height="30" as="geometry" />
        </mxCell>
        <mxCell id="_JVQNnz1pDGzqvOxEBza-15" value="" style="endArrow=classic;html=1;rounded=0;fontSize=12;startSize=8;endSize=8;curved=1;dashed=1;" edge="1" parent="1">
          <mxGeometry width="50" height="50" relative="1" as="geometry">
            <mxPoint x="360" y="360" as="sourcePoint" />
            <mxPoint x="180" y="360" as="targetPoint" />
          </mxGeometry>
        </mxCell>
        <mxCell id="_JVQNnz1pDGzqvOxEBza-16" value="&lt;span style=&quot;font-size: 10px;&quot;&gt;Información del pedido&lt;/span&gt;" style="text;html=1;align=center;verticalAlign=middle;resizable=0;points=[];autosize=1;strokeColor=none;fillColor=none;fontSize=16;" vertex="1" parent="1">
          <mxGeometry x="215" y="330" width="120" height="30" as="geometry" />
        </mxCell>
        <mxCell id="_JVQNnz1pDGzqvOxEBza-17" value="" style="endArrow=classic;html=1;rounded=0;fontSize=12;startSize=8;endSize=8;curved=1;" edge="1" parent="1">
          <mxGeometry width="50" height="50" relative="1" as="geometry">
            <mxPoint x="180" y="400" as="sourcePoint" />
            <mxPoint x="360" y="400" as="targetPoint" />
          </mxGeometry>
        </mxCell>
        <mxCell id="_JVQNnz1pDGzqvOxEBza-18" value="&lt;font style=&quot;font-size: 10px;&quot;&gt;Modificar información&lt;/font&gt;" style="text;html=1;align=center;verticalAlign=middle;resizable=0;points=[];autosize=1;strokeColor=none;fillColor=none;fontSize=16;" vertex="1" parent="1">
          <mxGeometry x="210" y="370" width="120" height="30" as="geometry" />
        </mxCell>
        <mxCell id="_JVQNnz1pDGzqvOxEBza-19" value="" style="endArrow=classic;html=1;rounded=0;fontSize=12;startSize=8;endSize=8;curved=1;" edge="1" parent="1">
          <mxGeometry width="50" height="50" relative="1" as="geometry">
            <mxPoint x="360" y="440" as="sourcePoint" />
            <mxPoint x="540" y="440" as="targetPoint" />
          </mxGeometry>
        </mxCell>
        <mxCell id="_JVQNnz1pDGzqvOxEBza-20" value="&lt;font style=&quot;font-size: 10px;&quot;&gt;Información modificada&lt;/font&gt;" style="text;html=1;align=center;verticalAlign=middle;resizable=0;points=[];autosize=1;strokeColor=none;fillColor=none;fontSize=16;" vertex="1" parent="1">
          <mxGeometry x="385" y="410" width="130" height="30" as="geometry" />
        </mxCell>
        <mxCell id="_JVQNnz1pDGzqvOxEBza-21" value="" style="endArrow=classic;html=1;rounded=0;fontSize=12;startSize=8;endSize=8;curved=1;dashed=1;" edge="1" parent="1">
          <mxGeometry width="50" height="50" relative="1" as="geometry">
            <mxPoint x="545" y="480" as="sourcePoint" />
            <mxPoint x="365" y="480" as="targetPoint" />
          </mxGeometry>
        </mxCell>
        <mxCell id="_JVQNnz1pDGzqvOxEBza-22" value="&lt;span style=&quot;font-size: 10px;&quot;&gt;Pedido modifcado&lt;/span&gt;" style="text;html=1;align=center;verticalAlign=middle;resizable=0;points=[];autosize=1;strokeColor=none;fillColor=none;fontSize=16;" vertex="1" parent="1">
          <mxGeometry x="410" y="450" width="100" height="30" as="geometry" />
        </mxCell>
        <mxCell id="_JVQNnz1pDGzqvOxEBza-23" value="" style="endArrow=classic;html=1;rounded=0;fontSize=12;startSize=8;endSize=8;curved=1;dashed=1;" edge="1" parent="1">
          <mxGeometry width="50" height="50" relative="1" as="geometry">
            <mxPoint x="360" y="500" as="sourcePoint" />
            <mxPoint x="180" y="500" as="targetPoint" />
          </mxGeometry>
        </mxCell>
        <mxCell id="_JVQNnz1pDGzqvOxEBza-24" value="&lt;span style=&quot;font-size: 10px;&quot;&gt;Pedido modifcado&lt;/span&gt;" style="text;html=1;align=center;verticalAlign=middle;resizable=0;points=[];autosize=1;strokeColor=none;fillColor=none;fontSize=16;" vertex="1" parent="1">
          <mxGeometry x="225" y="470" width="100" height="30" as="geometry" />
        </mxCell>
      </root>
    </mxGraphModel>
  </diagram>
</mxfile>
